<svg xmlns="http://www.w3.org/2000/svg" xmlns:xlink="http://www.w3.org/1999/xlink" contentScriptType="text/ecmascript" width="375" zoomAndPan="magnify" contentStyleType="text/css" height="374.999991" preserveAspectRatio="xMidYMid meet" version="1.0"><rect id="backgroundrect" width="100%" height="100%" x="0" y="0" fill="none" stroke="none"/><defs><clipPath id="clip-0"><path d="M 122.316406 112.5 L 233 112.5 L 233 262.5 L 122.316406 262.5 Z M 122.316406 112.5 " clip-rule="nonzero" id="svg_1"/></clipPath><clipPath id="clip-1"><path d="M 132 116 L 252.816406 116 L 252.816406 237 L 132 237 Z M 132 116 " clip-rule="nonzero" id="svg_2"/></clipPath><clipPath id="clip-2"><path d="M 190 116 L 252.816406 116 L 252.816406 262.5 L 190 262.5 Z M 190 116 " clip-rule="nonzero" id="svg_3"/></clipPath></defs><g class="currentLayer" style=""><title>Layer 1</title><g clip-path="url(#clip-1)" id="svg_9"><path fill="rgb(0%, 44.309998%, 73.728943%)" d="M 252.714844 176.949219 C 252.714844 178.917969 252.617188 180.875 252.425781 182.832031 C 252.230469 184.789062 251.941406 186.730469 251.558594 188.65625 C 251.175781 190.585938 250.699219 192.488281 250.125 194.371094 C 249.554688 196.25 248.894531 198.097656 248.140625 199.914062 C 247.386719 201.730469 246.546875 203.503906 245.621094 205.238281 C 244.691406 206.972656 243.683594 208.65625 242.589844 210.289062 C 241.496094 211.921875 240.324219 213.5 239.078125 215.019531 C 237.828125 216.539062 236.511719 217.992188 235.117188 219.382812 C 233.726562 220.769531 232.273438 222.089844 230.75 223.335938 C 229.230469 224.582031 227.652344 225.753906 226.015625 226.84375 C 224.378906 227.9375 222.695312 228.945312 220.960938 229.871094 C 219.226562 230.796875 217.449219 231.636719 215.628906 232.390625 C 213.8125 233.140625 211.964844 233.800781 210.082031 234.375 C 208.199219 234.945312 206.292969 235.421875 204.363281 235.804688 C 202.433594 236.1875 200.488281 236.476562 198.53125 236.667969 C 196.574219 236.859375 194.609375 236.957031 192.644531 236.957031 C 190.675781 236.957031 188.710938 236.859375 186.753906 236.667969 C 184.796875 236.476562 182.851562 236.1875 180.921875 235.804688 C 178.992188 235.421875 177.085938 234.945312 175.203125 234.375 C 173.324219 233.800781 171.472656 233.140625 169.65625 232.390625 C 167.835938 231.636719 166.058594 230.796875 164.324219 229.871094 C 162.589844 228.945312 160.90625 227.9375 159.269531 226.84375 C 157.632812 225.753906 156.054688 224.582031 154.535156 223.335938 C 153.011719 222.089844 151.558594 220.769531 150.167969 219.382812 C 148.773438 217.992188 147.457031 216.539062 146.207031 215.019531 C 144.960938 213.5 143.789062 211.921875 142.695312 210.289062 C 141.601562 208.65625 140.59375 206.972656 139.664062 205.238281 C 138.738281 203.503906 137.898438 201.730469 137.144531 199.914062 C 136.390625 198.097656 135.730469 196.25 135.160156 194.371094 C 134.585938 192.488281 134.109375 190.585938 133.726562 188.65625 C 133.34375 186.730469 133.054688 184.789062 132.859375 182.832031 C 132.667969 180.875 132.570312 178.917969 132.570312 176.949219 C 132.570312 174.984375 132.667969 173.023438 132.859375 171.070312 C 133.054688 169.113281 133.34375 167.171875 133.726562 165.246094 C 134.109375 163.316406 134.585938 161.414062 135.160156 159.53125 C 135.730469 157.652344 136.390625 155.804688 137.144531 153.988281 C 137.898438 152.171875 138.738281 150.398438 139.664062 148.664062 C 140.59375 146.929688 141.601562 145.246094 142.695312 143.613281 C 143.789062 141.980469 144.960938 140.402344 146.207031 138.882812 C 147.457031 137.363281 148.773438 135.910156 150.167969 134.519531 C 151.558594 133.128906 153.011719 131.8125 154.535156 130.566406 C 156.054688 129.320312 157.632812 128.148438 159.269531 127.058594 C 160.90625 125.964844 162.589844 124.957031 164.324219 124.03125 C 166.058594 123.105469 167.835938 122.265625 169.65625 121.511719 C 171.472656 120.761719 173.324219 120.097656 175.203125 119.527344 C 177.085938 118.957031 178.992188 118.480469 180.921875 118.097656 C 182.851562 117.714844 184.796875 117.425781 186.753906 117.234375 C 188.710938 117.042969 190.675781 116.945312 192.644531 116.945312 C 194.609375 116.945312 196.574219 117.042969 198.53125 117.234375 C 200.488281 117.425781 202.433594 117.714844 204.363281 118.097656 C 206.292969 118.480469 208.199219 118.957031 210.082031 119.527344 C 211.964844 120.097656 213.8125 120.761719 215.628906 121.511719 C 217.449219 122.265625 219.226562 123.105469 220.960938 124.03125 C 222.695312 124.957031 224.378906 125.964844 226.015625 127.058594 C 227.652344 128.148438 229.230469 129.320312 230.75 130.566406 C 232.273438 131.8125 233.726562 133.128906 235.117188 134.519531 C 236.511719 135.910156 237.828125 137.363281 239.078125 138.882812 C 240.324219 140.402344 241.496094 141.980469 242.589844 143.613281 C 243.683594 145.246094 244.691406 146.929688 245.621094 148.664062 C 246.546875 150.398438 247.386719 152.171875 248.140625 153.988281 C 248.894531 155.804688 249.554688 157.652344 250.125 159.53125 C 250.699219 161.414062 251.175781 163.316406 251.558594 165.246094 C 251.941406 167.171875 252.230469 169.113281 252.425781 171.070312 C 252.617188 173.023438 252.714844 174.984375 252.714844 176.949219 Z M 252.714844 176.949219 " fill-opacity="1" fill-rule="nonzero" id="svg_10"/></g><path fill="rgb(0%, 57.249451%, 27.059937%)" d="M 152.929688 134.238281 C 152.960938 134.359375 152.898438 134.511719 152.839844 134.601562 C 152.414062 135.363281 152.015625 136.09375 151.558594 136.917969 C 151.652344 137.039062 151.804688 137.28125 151.984375 137.523438 C 152.414062 137.222656 152.929688 137.007812 152.929688 136.339844 C 152.929688 135.757812 153.234375 135.332031 153.664062 134.875 C 154.757812 133.71875 156.128906 132.957031 157.5625 132.289062 C 158.324219 131.953125 159.085938 131.617188 159.847656 131.316406 C 160.0625 131.222656 160.125 131.101562 160.125 130.886719 C 160.09375 130.308594 160.0625 129.761719 160.0625 129.183594 C 160.0625 129.03125 160.152344 128.878906 160.277344 128.757812 C 161.738281 127.296875 163.660156 126.535156 165.457031 125.621094 C 165.609375 125.53125 165.792969 125.46875 165.945312 125.378906 C 166.308594 125.195312 166.339844 125.164062 166.402344 124.679688 C 161.464844 127.144531 156.921875 130.308594 152.898438 134.023438 C 152.898438 134.144531 152.898438 134.175781 152.929688 134.238281 Z M 152.929688 134.238281 " fill-opacity="1" fill-rule="nonzero" id="svg_11"/><path fill="rgb(0%, 57.249451%, 27.059937%)" d="M 141.441406 149.460938 C 141.441406 149.550781 141.441406 149.640625 141.5 149.703125 C 141.898438 150.160156 141.867188 150.738281 141.867188 151.285156 C 141.867188 151.804688 141.867188 151.804688 142.386719 151.804688 C 142.722656 151.804688 143.148438 151.894531 143.359375 151.742188 C 143.574219 151.589844 143.574219 151.132812 143.664062 150.828125 C 143.847656 150.160156 144.0625 149.519531 144.214844 148.851562 C 144.304688 148.453125 144.335938 148.027344 144.335938 147.632812 C 144.335938 147.207031 144.488281 146.871094 144.730469 146.566406 C 145.738281 145.257812 146.742188 143.917969 147.75 142.609375 C 147.839844 142.519531 147.871094 142.367188 147.902344 142.214844 C 147.933594 141.421875 147.960938 140.601562 147.992188 139.808594 C 147.992188 139.6875 148.023438 139.535156 148.085938 139.445312 C 148.421875 138.925781 148.753906 138.4375 149.121094 137.921875 C 146.164062 141.179688 143.542969 144.832031 141.378906 148.730469 C 141.410156 148.972656 141.410156 149.214844 141.441406 149.460938 Z M 141.441406 149.460938 " fill-opacity="1" fill-rule="nonzero" id="svg_12"/><path fill="rgb(0%, 57.249451%, 27.059937%)" d="M 200.964844 234.671875 C 201.390625 234.308594 201.785156 233.914062 202.183594 233.515625 C 202.273438 233.457031 202.304688 233.273438 202.304688 233.152344 C 202.335938 232.542969 202.335938 231.902344 202.394531 231.292969 C 202.425781 231.082031 202.515625 230.835938 202.667969 230.683594 C 204.101562 229.253906 205.808594 228.21875 207.605469 227.335938 C 208.460938 226.910156 209.160156 226.421875 209.589844 225.570312 C 209.921875 224.902344 210.5625 224.476562 211.140625 224.046875 C 212.269531 223.195312 213.09375 222.070312 213.914062 220.941406 C 214.25 220.457031 214.402344 219.847656 214.679688 219.207031 C 214.191406 219.148438 213.761719 219.117188 213.335938 219.085938 C 213.277344 219.085938 213.183594 219.148438 213.09375 219.207031 C 213.03125 219.238281 213 219.328125 213 219.390625 C 212.789062 220.089844 212.332031 220.335938 211.628906 220.242188 C 210.53125 220.089844 209.527344 220.457031 208.582031 220.972656 C 208.214844 221.15625 208.003906 221.125 207.730469 220.820312 C 206.601562 219.453125 205.199219 218.386719 203.917969 217.199219 C 203.460938 216.773438 203.15625 216.132812 202.820312 215.554688 C 202.640625 215.21875 202.515625 214.855469 202.425781 214.488281 C 202.089844 213.300781 201.480469 212.265625 200.6875 211.351562 C 199.894531 210.46875 199.132812 209.585938 198.34375 208.734375 C 198.21875 208.613281 198.128906 208.492188 198.007812 208.339844 C 197.519531 207.761719 197.609375 207.089844 197.671875 206.359375 C 198.34375 206.390625 198.980469 206.421875 199.621094 206.480469 C 199.714844 206.480469 199.804688 206.605469 199.867188 206.664062 C 200.628906 207.425781 201.390625 208.15625 202.121094 208.949219 C 202.304688 209.128906 202.425781 209.40625 202.578125 209.648438 C 203.277344 210.683594 203.460938 211.871094 203.554688 213.089844 C 203.554688 213.242188 203.613281 213.421875 203.644531 213.667969 C 204.285156 213.332031 204.894531 213.027344 205.472656 212.722656 C 205.503906 213.058594 205.566406 213.453125 205.625 213.878906 C 205.65625 214.09375 205.71875 214.304688 205.839844 214.488281 C 206.082031 214.945312 206.328125 215.371094 206.570312 215.796875 C 207.027344 216.589844 207.148438 217.472656 207.210938 218.355469 C 207.242188 218.570312 207.300781 218.628906 207.515625 218.628906 C 208.125 218.628906 208.734375 218.597656 209.222656 219.085938 C 209.679688 218.570312 210.105469 218.082031 210.53125 217.59375 C 210.714844 217.382812 210.929688 217.289062 211.234375 217.257812 C 212.210938 217.167969 213.152344 217.015625 214.128906 216.863281 C 214.25 216.832031 214.371094 216.804688 214.433594 216.710938 C 215.988281 215.160156 217.816406 213.910156 219.523438 212.539062 C 220.710938 211.597656 221.808594 210.59375 222.664062 209.34375 C 223 208.855469 223.179688 208.246094 223.425781 207.730469 C 222.570312 207.152344 221.71875 206.605469 220.894531 206.027344 C 220.378906 205.660156 220.40625 205.691406 219.828125 206.027344 C 219.21875 206.390625 218.578125 206.695312 217.9375 206.96875 C 217.453125 207.183594 217.054688 207.457031 216.902344 207.972656 C 216.8125 208.277344 216.628906 208.339844 216.324219 208.246094 C 215.867188 208.125 215.410156 208.003906 214.921875 207.914062 C 214.679688 207.851562 214.523438 207.761719 214.464844 207.488281 C 214.191406 206.664062 213.914062 205.84375 213.640625 205.050781 C 213.582031 204.839844 213.457031 204.625 213.367188 204.441406 C 213.277344 204.230469 213.125 204.109375 212.878906 204.078125 C 212.636719 204.078125 212.542969 203.957031 212.515625 203.679688 C 212.484375 203.222656 212.421875 202.769531 212.363281 202.25 C 213.125 202.371094 213.914062 202.523438 214.3125 201.609375 C 214.859375 202.097656 215.289062 202.585938 215.804688 202.921875 C 216.535156 203.40625 217.296875 203.894531 218.273438 203.925781 C 219.003906 203.925781 219.738281 203.957031 220.46875 204.015625 C 220.804688 204.046875 221.078125 203.957031 221.320312 203.710938 C 221.445312 203.589844 221.566406 203.5 221.6875 203.40625 C 221.71875 203.4375 221.75 203.4375 221.75 203.4375 C 221.960938 204.046875 222.449219 204.015625 223 204.078125 C 223.636719 204.136719 224.09375 203.957031 224.492188 203.46875 C 224.796875 203.074219 225.191406 202.738281 225.527344 202.371094 C 225.925781 202.585938 226.257812 202.769531 226.59375 202.980469 C 226.746094 203.074219 226.898438 203.101562 227.050781 202.980469 C 227.144531 202.921875 227.265625 202.890625 227.355469 202.828125 C 227.996094 202.371094 228.699219 202.339844 229.429688 202.402344 C 229.550781 202.402344 229.671875 202.523438 229.765625 202.617188 C 229.945312 202.890625 230.070312 203.195312 230.25 203.5 C 230.3125 203.46875 230.375 203.4375 230.402344 203.40625 C 230.859375 202.796875 231.5 202.949219 232.109375 203.074219 C 232.171875 203.074219 232.261719 203.132812 232.324219 203.195312 C 232.84375 204.015625 233.695312 204.289062 234.578125 204.503906 C 234.945312 204.59375 235.035156 204.746094 235.007812 205.082031 C 234.945312 205.8125 234.914062 206.574219 234.882812 207.304688 C 234.882812 207.488281 234.914062 207.667969 234.976562 207.820312 C 235.492188 208.980469 236.042969 210.164062 236.558594 211.324219 C 236.652344 211.535156 236.773438 211.597656 236.988281 211.65625 C 237.628906 211.871094 238.054688 211.6875 238.449219 211.140625 C 238.753906 210.714844 238.9375 210.347656 238.816406 209.800781 C 238.722656 209.34375 238.695312 208.855469 238.632812 208.371094 C 238.632812 208.277344 238.632812 208.15625 238.664062 208.066406 C 238.722656 207.882812 238.816406 207.730469 238.847656 207.546875 C 239.363281 205.570312 240.644531 204.046875 242.015625 202.617188 C 242.046875 202.585938 242.105469 202.523438 242.136719 202.492188 C 243.144531 201.457031 243.144531 201.457031 243.203125 199.996094 C 243.203125 199.816406 243.265625 199.570312 243.355469 199.417969 C 243.964844 198.503906 244.332031 197.46875 244.484375 196.375 C 244.515625 196.253906 244.546875 196.132812 244.605469 196.039062 C 245.492188 195.035156 246.375 194.03125 247.257812 193.027344 C 247.59375 193.328125 247.929688 193.632812 248.265625 193.9375 C 249.910156 188.582031 250.761719 182.855469 250.761719 176.980469 C 250.761719 156.949219 240.644531 139.292969 225.253906 128.789062 C 225.160156 129.671875 225.070312 130.554688 224.980469 131.46875 C 224.980469 131.589844 224.855469 131.769531 224.734375 131.832031 C 223.425781 132.441406 222.082031 133.019531 220.742188 133.597656 C 220.621094 133.660156 220.40625 133.597656 220.316406 133.507812 C 219.796875 133.109375 219.28125 132.683594 218.761719 132.289062 C 218.671875 132.226562 218.488281 132.167969 218.394531 132.199219 C 217.207031 132.683594 216.050781 133.171875 214.890625 133.660156 C 214.859375 133.660156 214.832031 133.6875 214.769531 133.75 C 214.859375 133.839844 214.953125 133.933594 215.042969 134.023438 C 215.746094 134.722656 216.445312 135.425781 217.117188 136.125 C 217.207031 136.246094 217.296875 136.429688 217.296875 136.582031 C 217.207031 138.132812 217.085938 139.65625 216.964844 141.238281 C 217.605469 141.359375 218.214844 141.484375 218.914062 141.605469 C 218.273438 142.273438 217.695312 142.914062 217.085938 143.554688 C 217.878906 144.039062 218.640625 144.527344 219.433594 145.046875 C 218.824219 145.835938 218.242188 146.597656 217.664062 147.359375 C 217.511719 147.542969 217.453125 147.722656 217.605469 147.9375 C 217.632812 148 217.664062 148.058594 217.695312 148.121094 C 218.488281 149.886719 218.488281 149.917969 220.042969 151.105469 C 220.316406 151.316406 220.46875 151.53125 220.4375 151.925781 C 220.378906 152.382812 220.378906 152.871094 220.347656 153.417969 C 219.859375 152.992188 219.402344 152.625 218.976562 152.230469 C 218.121094 151.5 217.269531 150.738281 216.414062 150.007812 C 216.292969 149.917969 216.203125 149.734375 216.171875 149.613281 C 216.019531 148.910156 215.867188 148.210938 215.714844 147.480469 C 215.011719 147.632812 214.3125 147.785156 213.640625 147.9375 C 213.582031 147.96875 213.488281 148.121094 213.488281 148.210938 C 213.488281 148.605469 213.519531 149.003906 213.582031 149.398438 C 213.609375 149.550781 213.703125 149.703125 213.824219 149.792969 C 214.769531 150.648438 215.746094 151.5 216.6875 152.382812 C 216.8125 152.503906 216.902344 152.6875 216.902344 152.871094 C 216.933594 153.234375 216.902344 153.601562 216.902344 153.996094 C 216.292969 153.933594 215.714844 153.875 215.136719 153.8125 C 214.984375 153.78125 214.832031 153.8125 214.707031 153.753906 C 214.007812 153.507812 213.671875 153.875 213.277344 154.421875 C 212.667969 155.214844 212.484375 156.125 212.238281 157.039062 C 212.148438 157.34375 212.027344 157.558594 211.691406 157.679688 C 210.015625 158.378906 208.367188 159.140625 206.601562 159.535156 C 206.480469 159.566406 206.359375 159.660156 206.265625 159.75 C 204.347656 161.515625 202.425781 163.28125 200.503906 165.046875 C 200.351562 165.199219 200.199219 165.261719 199.957031 165.199219 C 199.285156 165.046875 198.585938 164.957031 197.914062 164.804688 C 197.640625 164.742188 197.398438 164.46875 197.152344 164.316406 C 196.695312 164.011719 196.542969 163.617188 196.605469 163.066406 C 196.636719 162.703125 196.605469 162.308594 196.605469 161.882812 C 198.617188 161.636719 200.597656 161.394531 202.640625 161.148438 C 202.304688 160.753906 202 160.417969 201.664062 160.085938 C 200.351562 158.746094 199.074219 157.375 197.761719 156.035156 C 197.640625 155.914062 197.425781 155.824219 197.246094 155.792969 C 194.625 155.699219 192.003906 155.640625 189.382812 155.546875 C 189.136719 155.546875 188.953125 155.609375 188.773438 155.761719 C 187.402344 156.828125 186.027344 157.863281 184.65625 158.929688 C 184.445312 159.078125 184.261719 159.261719 184.109375 159.476562 C 183.226562 160.632812 182.339844 161.789062 181.457031 162.945312 C 181.242188 163.21875 181 163.371094 180.695312 163.496094 C 179.019531 164.074219 177.34375 164.710938 175.695312 165.289062 C 175.453125 165.382812 175.332031 165.503906 175.332031 165.777344 C 175.238281 167.300781 175.117188 168.820312 175.027344 170.34375 C 175.027344 170.496094 175.117188 170.710938 175.238281 170.832031 C 175.515625 171.105469 175.820312 171.5 176.183594 171.5625 C 176.519531 171.625 176.886719 171.289062 177.25 171.105469 C 177.800781 170.863281 178.347656 170.589844 178.898438 170.375 C 178.988281 170.34375 179.140625 170.40625 179.261719 170.4375 C 179.261719 170.4375 179.292969 170.464844 179.292969 170.464844 C 180.269531 171.042969 179.996094 171.957031 179.902344 172.808594 C 179.8125 173.480469 179.75 174.148438 179.691406 174.851562 C 180.453125 174.972656 181.152344 175.0625 181.855469 175.183594 C 182.097656 175.214844 182.128906 175.0625 182.1875 174.910156 C 182.675781 173.875 183.132812 172.808594 183.589844 171.773438 C 183.710938 171.472656 183.894531 171.378906 184.171875 171.378906 C 184.75 171.378906 185.359375 171.320312 186 171.289062 C 186 170.800781 186 170.3125 186 169.855469 C 186 169.796875 185.9375 169.765625 185.90625 169.707031 C 185.847656 169.644531 185.816406 169.582031 185.753906 169.554688 C 184.597656 168.945312 184.75 167.878906 184.78125 166.875 C 184.78125 166.78125 184.902344 166.660156 184.992188 166.601562 C 185.449219 166.324219 185.875 166.050781 186.363281 165.808594 C 186.730469 165.625 186.972656 165.351562 187.15625 165.015625 C 187.523438 164.40625 187.886719 163.800781 188.285156 163.191406 C 188.375 163.066406 188.527344 162.945312 188.679688 162.945312 C 189.382812 162.886719 190.082031 162.855469 190.84375 162.824219 C 190.8125 163.039062 190.8125 163.25 190.785156 163.433594 C 190.722656 163.859375 190.691406 164.253906 190.632812 164.683594 C 190.601562 164.804688 190.507812 164.925781 190.417969 164.957031 C 189.5625 165.230469 189.105469 165.867188 188.742188 166.660156 C 188.496094 167.148438 188.34375 167.605469 188.375 168.152344 C 188.40625 168.820312 188.375 169.460938 188.375 170.191406 C 189.015625 170.039062 189.625 169.917969 190.203125 169.765625 C 190.539062 169.675781 190.875 169.613281 191.179688 169.492188 C 191.851562 169.15625 192.492188 169.277344 193.101562 169.613281 C 193.191406 169.675781 193.3125 169.796875 193.34375 169.886719 C 193.40625 170.375 193.40625 170.863281 193.464844 171.378906 C 192.703125 171.410156 191.941406 171.53125 191.210938 171.441406 C 190.296875 171.347656 189.746094 171.652344 189.566406 172.535156 C 189.351562 173.449219 188.710938 173.90625 187.765625 174.089844 C 186.851562 174.273438 186.792969 174.332031 186.792969 175.277344 C 186.792969 175.640625 186.792969 176.007812 186.792969 176.433594 C 185.875 176.554688 185.390625 176.707031 184.6875 176.796875 C 183.894531 176.890625 183.132812 176.921875 182.371094 177.042969 C 181.578125 177.164062 180.847656 177.40625 180.085938 177.558594 C 179.84375 177.621094 179.566406 177.589844 179.355469 177.53125 C 178.777344 177.347656 178.195312 177.101562 177.617188 176.921875 C 177.433594 176.859375 177.375 176.769531 177.433594 176.585938 C 177.527344 176.160156 177.527344 175.761719 177.617188 175.335938 C 177.648438 175.183594 177.769531 175.003906 177.890625 174.878906 C 178.53125 174.210938 178.625 173.722656 178.164062 172.902344 C 178.074219 172.75 177.984375 172.566406 177.859375 172.355469 C 177.402344 172.839844 176.917969 173.296875 176.550781 173.816406 C 176.367188 174.089844 176.398438 174.515625 176.335938 174.851562 C 176.277344 175.214844 176.214844 175.550781 176.15625 175.945312 C 175.789062 175.945312 175.453125 175.976562 175.117188 175.945312 C 174.722656 175.914062 174.386719 176.007812 174.082031 176.25 C 173.746094 176.523438 173.410156 176.675781 172.953125 176.617188 C 172.832031 176.617188 172.648438 176.675781 172.558594 176.769531 C 172.160156 177.101562 171.734375 177.40625 171.398438 177.773438 C 171.003906 178.230469 170.457031 178.199219 169.9375 178.261719 C 169.480469 178.320312 168.992188 178.382812 168.535156 178.382812 C 168.292969 178.382812 168.109375 178.472656 167.957031 178.6875 C 167.621094 179.113281 167.253906 179.507812 166.890625 179.933594 C 166.097656 179.539062 165.304688 179.144531 164.511719 178.714844 C 164.054688 178.441406 163.660156 178.535156 163.109375 178.6875 C 163.324219 179.050781 163.476562 179.386719 163.71875 179.660156 C 164.296875 180.332031 164.910156 180.96875 165.519531 181.640625 C 165.609375 181.730469 165.671875 181.882812 165.671875 182.003906 C 165.671875 182.675781 165.671875 183.3125 165.640625 183.984375 C 165.640625 184.136719 165.578125 184.289062 165.519531 184.410156 C 165.273438 184.925781 164.910156 185.140625 164.328125 185.050781 C 163.871094 184.988281 163.414062 184.988281 162.957031 184.957031 C 162.804688 184.957031 162.652344 184.867188 162.5625 184.773438 C 161.554688 183.953125 160.550781 183.132812 159.574219 182.339844 C 158.84375 182.613281 158.539062 183.039062 158.597656 183.832031 C 158.660156 184.652344 158.570312 185.503906 158.445312 186.296875 C 158.386719 186.753906 158.171875 187.179688 157.988281 187.605469 C 157.65625 188.308594 157.929688 188.976562 157.929688 189.675781 C 157.929688 189.738281 158.050781 189.828125 158.113281 189.890625 C 158.996094 190.46875 159.878906 191.078125 160.761719 191.65625 C 160.886719 191.746094 161.039062 191.777344 161.191406 191.777344 C 161.800781 191.808594 162.441406 191.898438 163.019531 191.808594 C 163.71875 191.6875 164.542969 191.59375 164.910156 190.832031 C 165.488281 189.675781 166.613281 189.097656 167.53125 188.335938 C 168.199219 187.789062 169.023438 187.636719 169.785156 187.300781 C 169.84375 187.273438 169.9375 187.273438 170.027344 187.273438 C 171.644531 187.273438 173.289062 187.300781 174.90625 187.300781 C 175.210938 187.300781 175.363281 187.394531 175.453125 187.667969 C 175.699219 188.277344 176.003906 188.855469 176.214844 189.464844 C 176.550781 190.347656 177.25 190.925781 177.859375 191.625 C 177.921875 191.714844 178.074219 191.746094 178.164062 191.808594 C 178.804688 192.113281 179.445312 192.445312 180.117188 192.75 C 180.359375 192.84375 180.421875 192.996094 180.421875 193.238281 C 180.390625 193.910156 180.421875 194.578125 180.421875 195.308594 C 180.785156 195.21875 181.121094 195.15625 181.457031 195.066406 C 181.519531 195.035156 181.609375 194.972656 181.609375 194.882812 C 181.730469 194.425781 181.824219 193.816406 181.914062 193.511719 C 182.160156 193.511719 182.371094 193.511719 182.585938 193.511719 C 182.675781 193.207031 182.644531 192.691406 182.25 192.417969 C 181.488281 191.867188 180.757812 191.230469 179.996094 190.679688 C 179.84375 190.558594 179.566406 190.558594 179.386719 190.589844 C 179.019531 190.621094 178.867188 190.46875 178.804688 190.132812 C 178.59375 189.191406 178.347656 188.277344 178.105469 187.273438 C 178.59375 187.273438 179.019531 187.273438 179.414062 187.273438 C 179.476562 187.273438 179.566406 187.363281 179.566406 187.421875 C 179.660156 188.335938 180.390625 188.824219 180.96875 189.371094 C 181.761719 190.101562 182.617188 190.804688 183.40625 191.535156 C 183.773438 191.867188 184.140625 192.265625 184.414062 192.691406 C 184.566406 192.964844 184.566406 193.328125 184.628906 193.664062 C 184.65625 193.816406 184.75 194.03125 184.839844 194.0625 C 185.601562 194.425781 185.816406 195.066406 185.816406 195.828125 C 185.816406 196.28125 186.027344 196.496094 186.425781 196.617188 C 186.761719 196.710938 187.097656 196.863281 187.460938 197.015625 C 187.582031 196.3125 187.707031 195.613281 187.828125 194.945312 C 187.859375 194.792969 187.949219 194.609375 188.039062 194.488281 C 188.101562 194.363281 188.222656 194.273438 188.316406 194.152344 C 188.648438 193.574219 189.136719 193.359375 189.777344 193.574219 C 189.898438 193.605469 190.050781 193.695312 190.082031 193.785156 C 190.355469 194.515625 190.9375 195.035156 191.421875 195.582031 C 192.003906 196.253906 192.519531 196.984375 193.070312 197.683594 C 193.222656 197.867188 193.34375 197.988281 193.585938 197.988281 C 193.863281 197.988281 194.167969 198.050781 194.441406 197.988281 C 194.746094 197.925781 195.019531 197.773438 195.265625 197.621094 C 195.476562 197.5 195.628906 197.46875 195.8125 197.59375 C 196.636719 198.078125 197.457031 198.109375 198.402344 197.988281 C 199.164062 197.898438 199.925781 198.140625 200.351562 198.960938 C 200.6875 199.632812 200.75 199.632812 200.199219 200.179688 C 199.894531 200.484375 199.867188 200.851562 199.835938 201.214844 C 199.742188 201.976562 199.347656 202.492188 198.769531 202.949219 C 198.371094 203.285156 197.976562 203.40625 197.488281 203.40625 C 196.238281 203.40625 195.019531 203.5 193.769531 203.46875 C 192.125 203.4375 190.449219 203.4375 188.863281 202.796875 C 188.742188 202.769531 188.648438 202.707031 188.558594 202.644531 C 188.039062 202.28125 187.460938 201.976562 186.972656 201.582031 C 186.484375 201.183594 185.96875 201.09375 185.390625 201.183594 C 185.238281 201.214844 185.023438 201.335938 184.933594 201.457031 C 184.503906 202.128906 184.078125 202.828125 183.683594 203.5 C 183.4375 203.925781 182.769531 204.078125 182.339844 203.832031 C 181.703125 203.46875 181.0625 203.101562 180.421875 202.738281 C 179.933594 202.464844 179.445312 202.21875 178.898438 202.128906 C 178.804688 202.128906 178.683594 201.976562 178.652344 201.855469 C 178.59375 201.734375 178.59375 201.582031 178.59375 201.457031 C 178.683594 200.910156 178.347656 200.726562 177.890625 200.605469 C 177.007812 200.332031 176.15625 199.996094 175.269531 199.691406 C 175.058594 199.632812 174.964844 199.511719 174.933594 199.296875 C 174.84375 198.476562 174.753906 197.683594 174.660156 196.863281 C 174.628906 196.710938 174.601562 196.558594 174.507812 196.433594 C 173.992188 195.886719 173.503906 195.339844 172.953125 194.820312 C 172.832031 194.699219 172.648438 194.640625 172.496094 194.640625 C 169.816406 194.578125 167.101562 194.546875 164.421875 194.488281 C 164.328125 194.488281 164.207031 194.488281 164.144531 194.457031 C 163.445312 194.03125 162.652344 194.121094 161.890625 194.121094 C 161.554688 194.121094 161.34375 194 161.066406 193.816406 C 160.457031 193.421875 159.847656 193.054688 159.210938 192.691406 C 158.8125 192.476562 158.324219 192.660156 158.203125 193.085938 C 157.835938 194.363281 157.046875 195.246094 155.796875 195.796875 C 155.398438 195.980469 155.003906 196.222656 154.667969 196.527344 C 154.179688 196.921875 153.664062 197.074219 153.082031 196.890625 C 152.71875 196.800781 152.503906 196.953125 152.261719 197.167969 C 151.804688 197.621094 151.285156 198.050781 150.828125 198.535156 C 150.675781 198.6875 150.554688 198.933594 150.492188 199.175781 C 150.066406 200.910156 150.15625 202.707031 150.1875 204.472656 C 150.1875 205.964844 150.15625 207.457031 150.21875 208.949219 C 150.25 209.585938 150.554688 210.195312 150.738281 210.804688 C 150.765625 210.867188 150.859375 210.925781 150.917969 210.957031 C 151.042969 211.046875 151.164062 211.140625 151.316406 211.230469 C 152.414062 211.808594 153.175781 212.691406 153.785156 213.757812 C 154.515625 215.066406 155.703125 216.011719 156.863281 216.894531 C 158.082031 217.808594 159.390625 218.660156 160.703125 219.453125 C 161.191406 219.726562 161.800781 219.785156 162.347656 219.96875 C 163.203125 220.242188 164.085938 220.363281 164.96875 220.210938 C 165.242188 220.183594 165.519531 220.210938 165.792969 220.183594 C 166.402344 220.152344 166.917969 220.335938 167.46875 220.609375 C 168.351562 221.035156 169.144531 221.613281 169.753906 222.375 C 169.90625 222.558594 170.058594 222.585938 170.304688 222.558594 C 170.636719 222.496094 171.003906 222.433594 171.339844 222.375 C 172.039062 222.191406 172.679688 222.464844 173.351562 222.617188 C 173.535156 222.679688 173.6875 222.953125 173.867188 223.105469 C 174.476562 223.621094 174.628906 224.292969 174.570312 225.054688 C 174.539062 225.660156 174.570312 226.300781 174.628906 226.910156 C 174.628906 227.03125 174.722656 227.183594 174.8125 227.277344 C 175.179688 227.609375 175.542969 227.945312 175.910156 228.25 C 176.003906 228.339844 176.125 228.433594 176.246094 228.433594 C 176.640625 228.464844 176.855469 228.707031 177.007812 229.042969 C 177.128906 229.347656 177.34375 229.648438 177.464844 229.984375 C 177.800781 230.835938 178.378906 231.417969 179.140625 231.933594 C 180.023438 232.542969 180.785156 233.304688 181.761719 233.761719 C 181.824219 233.789062 181.914062 233.882812 181.914062 233.972656 C 181.945312 234.125 181.976562 234.246094 182.007812 234.398438 C 185.390625 235.007812 188.894531 235.34375 192.460938 235.34375 C 195.386719 235.28125 198.21875 235.070312 200.964844 234.671875 Z M 200.964844 234.671875 " fill-opacity="1" fill-rule="nonzero" id="svg_13"/><path fill="rgb(0%, 57.249451%, 27.059937%)" d="M 168.839844 142.457031 C 170.121094 142 171.15625 141.148438 172.253906 140.417969 C 172.589844 140.203125 172.800781 139.929688 172.894531 139.566406 C 173.015625 139.140625 173.199219 138.742188 173.320312 138.316406 C 173.382812 138.074219 173.535156 137.980469 173.777344 137.980469 C 174.355469 137.953125 174.933594 137.921875 175.542969 137.890625 C 175.605469 137.523438 175.605469 137.160156 175.695312 136.824219 C 175.789062 136.460938 175.695312 136.0625 176.0625 135.757812 C 176.792969 135.179688 177.496094 134.542969 178.195312 133.933594 C 178.441406 133.71875 178.683594 133.628906 178.988281 133.6875 C 179.355469 133.75 179.71875 133.75 180.054688 133.78125 C 180.175781 133.78125 180.300781 133.71875 180.390625 133.660156 C 180.910156 133.234375 181.425781 132.804688 181.945312 132.378906 C 182.28125 132.136719 182.492188 131.863281 182.585938 131.46875 C 182.769531 130.734375 183.132812 130.15625 183.863281 129.914062 C 184.597656 129.671875 184.902344 129.121094 184.960938 128.390625 C 184.960938 128.300781 184.992188 128.179688 185.023438 128.085938 C 185.144531 127.84375 185.023438 127.753906 184.808594 127.660156 C 184.046875 127.328125 183.316406 126.992188 182.585938 126.65625 C 182.433594 126.597656 182.25 126.566406 182.066406 126.535156 C 178.929688 126.445312 175.789062 126.382812 172.648438 126.292969 C 172.464844 126.292969 172.253906 126.382812 172.101562 126.472656 C 171.582031 126.871094 171.09375 127.328125 170.609375 127.753906 C 170.179688 127.507812 169.785156 127.265625 169.359375 127.023438 C 169.265625 127.144531 169.207031 127.203125 169.144531 127.296875 C 168.535156 128.179688 167.957031 129.03125 167.347656 129.882812 C 167.195312 130.097656 166.949219 130.308594 166.738281 130.460938 C 164.757812 131.648438 162.746094 132.804688 160.761719 133.964844 C 160.640625 134.054688 160.488281 134.144531 160.398438 134.238281 C 159.820312 134.9375 159.210938 135.636719 158.660156 136.339844 C 158.355469 136.734375 157.988281 137.039062 157.503906 137.28125 C 155.917969 138.074219 154.332031 138.925781 152.746094 139.746094 C 152.535156 139.871094 152.351562 140.050781 152.230469 140.265625 C 151.863281 140.90625 151.5 141.542969 151.164062 142.183594 C 150.707031 143.097656 150.15625 143.917969 149.394531 144.617188 C 148.847656 145.136719 148.359375 145.683594 147.839844 146.234375 C 147.71875 146.355469 147.65625 146.535156 147.65625 146.6875 C 147.628906 147.390625 147.6875 148.121094 147.628906 148.820312 C 147.597656 149.367188 147.78125 149.613281 148.269531 149.855469 C 148.847656 150.128906 149.304688 150.160156 149.820312 149.855469 C 150.25 149.613281 150.765625 149.519531 151.101562 149.09375 C 151.742188 148.363281 152.441406 147.695312 153.082031 146.992188 C 153.296875 146.75 153.480469 146.6875 153.722656 146.933594 C 154.425781 147.570312 155.214844 147.847656 156.160156 147.601562 C 156.222656 147.570312 156.3125 147.601562 156.375 147.601562 C 156.589844 147.542969 156.832031 147.511719 156.984375 147.390625 C 157.472656 147.054688 157.960938 146.71875 158.476562 146.355469 C 158.691406 146.6875 158.902344 146.992188 159.054688 147.328125 C 159.179688 147.542969 159.300781 147.570312 159.515625 147.511719 C 160.03125 147.390625 160.550781 147.269531 161.039062 147.144531 C 161.25 147.085938 161.371094 147.117188 161.496094 147.269531 C 161.921875 147.722656 162.347656 148.210938 162.804688 148.699219 C 162.988281 148.300781 163.171875 147.9375 163.324219 147.542969 C 163.382812 147.390625 163.355469 147.207031 163.292969 147.054688 C 163.109375 146.660156 162.867188 146.261719 162.683594 145.867188 C 162.652344 145.804688 162.59375 145.652344 162.652344 145.625 C 163.019531 145.136719 163.382812 144.648438 163.8125 144.101562 C 164.238281 144.984375 164.632812 145.835938 165.0625 146.71875 C 165.214844 146.019531 165.304688 145.410156 165.457031 144.800781 C 165.546875 144.34375 165.609375 143.859375 165.792969 143.460938 C 166.003906 142.976562 166.371094 142.519531 166.675781 142.0625 C 166.765625 141.910156 166.890625 141.847656 167.042969 141.941406 C 167.40625 142.121094 167.773438 142.304688 168.140625 142.457031 C 168.472656 142.519531 168.6875 142.519531 168.839844 142.457031 Z M 168.839844 142.457031 " fill-opacity="1" fill-rule="nonzero" id="svg_14"/><path fill="rgb(0%, 57.249451%, 27.059937%)" d="M 162.957031 176.402344 C 163.902344 176.707031 164.359375 177.46875 164.878906 178.167969 C 166.128906 177.679688 167.164062 177.011719 167.957031 175.945312 C 167.53125 175.15625 167.070312 174.363281 166.675781 173.542969 C 166.460938 173.085938 166.28125 172.628906 166.128906 172.140625 C 166.003906 171.777344 165.914062 171.378906 165.851562 170.984375 C 165.671875 169.886719 165.457031 168.792969 166.066406 167.726562 C 166.128906 167.605469 166.15625 167.484375 166.21875 167.332031 C 165.519531 166.996094 164.816406 166.78125 164.144531 167.359375 C 164.054688 167.453125 163.902344 167.484375 163.8125 167.574219 C 163.71875 167.664062 163.597656 167.816406 163.597656 167.96875 C 163.597656 168.914062 163.628906 169.855469 163.628906 170.800781 C 163.628906 171.105469 163.6875 171.289062 163.992188 171.347656 C 164.117188 171.378906 164.269531 171.441406 164.296875 171.5 C 164.390625 171.988281 164.695312 172.445312 164.449219 172.960938 C 163.964844 174.058594 163.476562 175.183594 162.957031 176.402344 Z M 162.957031 176.402344 " fill-opacity="1" fill-rule="nonzero" id="svg_15"/><path fill="rgb(0%, 57.249451%, 27.059937%)" d="M 190.785156 137.25 C 190.875 137.160156 190.996094 137.097656 191.089844 137.007812 C 191.148438 136.945312 191.210938 136.886719 191.210938 136.792969 C 191.242188 136.246094 191.269531 135.699219 190.875 135.242188 C 190.660156 134.96875 189.929688 134.90625 189.6875 135.152344 C 189.351562 135.515625 188.984375 135.910156 188.648438 136.308594 C 188.527344 136.460938 188.40625 136.519531 188.191406 136.460938 C 187.765625 136.367188 187.339844 136.339844 186.882812 136.246094 C 186.730469 136.945312 186.546875 137.585938 186.425781 138.257812 C 186.394531 138.410156 186.425781 138.589844 186.457031 138.742188 C 186.515625 139.199219 186.636719 139.625 186.667969 140.082031 C 186.699219 140.875 186.699219 141.605469 186.699219 142.367188 C 186.699219 142.640625 186.699219 142.851562 186.699219 143.15625 C 187.003906 143.15625 187.25 143.15625 187.523438 143.15625 C 187.582031 142.851562 187.613281 142.304688 187.675781 141.847656 C 187.707031 141.453125 187.765625 141.085938 188.164062 140.8125 C 188.621094 140.476562 189.015625 140.050781 189.472656 139.6875 C 189.6875 139.503906 189.746094 139.320312 189.6875 139.078125 C 189.5625 138.589844 189.472656 138.074219 189.320312 137.464844 C 189.929688 137.980469 190.355469 137.648438 190.785156 137.25 Z M 190.785156 137.25 " fill-opacity="1" fill-rule="nonzero" id="svg_16"/><path fill="rgb(0%, 57.249451%, 27.059937%)" d="M 205.015625 152.167969 C 205.59375 152.625 206.296875 152.898438 207.027344 153.265625 C 207.210938 152.898438 207.363281 152.59375 207.546875 152.289062 C 207.667969 152.109375 207.636719 151.957031 207.484375 151.773438 C 207.027344 151.226562 206.632812 150.675781 206.175781 150.160156 C 205.65625 149.550781 205.199219 148.941406 205.289062 148.089844 C 205.320312 147.753906 205.289062 147.390625 205.199219 147.054688 C 205.136719 146.78125 205.230469 146.628906 205.441406 146.507812 C 205.6875 146.382812 205.746094 146.203125 205.71875 145.957031 C 205.65625 145.105469 205.65625 144.253906 205.59375 143.402344 C 205.59375 143.1875 205.625 143.035156 205.808594 142.914062 C 206.144531 142.699219 206.449219 142.457031 206.785156 142.214844 C 206.84375 142.152344 206.9375 142.0625 206.9375 142 C 206.84375 141.574219 206.753906 141.148438 206.632812 140.691406 C 205.992188 141.332031 205.441406 141.910156 204.863281 142.457031 C 204.679688 142.640625 204.589844 142.824219 204.621094 143.097656 C 204.621094 144.101562 204.710938 145.074219 204.285156 146.019531 C 204.222656 146.140625 204.253906 146.292969 204.253906 146.414062 C 204.222656 147.847656 204.222656 149.246094 204.222656 150.675781 C 204.195312 151.316406 204.558594 151.835938 205.015625 152.167969 Z M 205.015625 152.167969 " fill-opacity="1" fill-rule="nonzero" id="svg_17"/><path fill="rgb(0%, 57.249451%, 27.059937%)" d="M 163.71875 155.273438 C 163.71875 154.574219 163.414062 154.085938 162.867188 153.753906 C 162.746094 153.660156 162.621094 153.570312 162.5 153.449219 C 162.164062 153.050781 161.738281 152.992188 161.25 152.992188 C 160.671875 153.023438 160.09375 152.992188 159.453125 152.992188 C 159.453125 153.722656 159.453125 154.421875 159.453125 155.09375 C 159.453125 155.394531 159.515625 155.578125 159.789062 155.730469 C 160.183594 155.976562 160.550781 156.25 160.914062 156.492188 C 161.007812 156.554688 161.128906 156.613281 161.21875 156.644531 C 162.074219 156.765625 162.925781 156.886719 163.839844 157.011719 C 163.8125 156.402344 163.6875 155.851562 163.71875 155.273438 Z M 163.71875 155.273438 " fill-opacity="1" fill-rule="nonzero" id="svg_18"/><path fill="rgb(0%, 57.249451%, 27.059937%)" d="M 208.0625 131.496094 C 208.429688 131.589844 208.796875 131.617188 209.160156 131.679688 C 209.496094 131.710938 209.742188 131.832031 209.800781 132.226562 C 209.863281 132.503906 209.984375 132.746094 210.074219 133.082031 C 210.441406 132.683594 210.808594 132.351562 211.050781 131.953125 C 211.171875 131.742188 211.019531 131.375 210.988281 131.070312 C 210.988281 131.070312 210.988281 131.039062 210.988281 131.039062 C 210.960938 130.828125 210.898438 130.734375 210.65625 130.734375 C 209.464844 130.675781 208.308594 130.554688 207.121094 130.585938 C 206.144531 130.613281 205.351562 130.371094 204.773438 129.578125 C 204.710938 129.488281 204.589844 129.425781 204.46875 129.425781 C 203.980469 129.398438 203.460938 129.425781 202.914062 129.425781 C 203.1875 130.003906 203.402344 130.492188 203.644531 130.980469 C 203.675781 131.070312 203.859375 131.132812 203.949219 131.164062 C 204.40625 131.191406 204.894531 131.191406 205.351562 131.222656 C 205.535156 131.253906 205.777344 131.316406 205.929688 131.46875 C 206.265625 131.769531 206.632812 131.984375 207.089844 132.074219 C 207.363281 132.136719 207.546875 132.105469 207.636719 131.832031 C 207.699219 131.496094 207.820312 131.4375 208.0625 131.496094 Z M 208.0625 131.496094 " fill-opacity="1" fill-rule="nonzero" id="svg_19"/><path fill="rgb(0%, 57.249451%, 27.059937%)" d="M 161.3125 170.589844 C 160.824219 170.832031 160.335938 171.074219 159.847656 171.347656 C 159.757812 171.410156 159.667969 171.5 159.605469 171.59375 C 159.363281 172.261719 159.117188 172.902344 158.8125 173.695312 C 159.390625 173.695312 159.910156 173.722656 160.429688 173.695312 C 160.609375 173.695312 160.792969 173.601562 160.945312 173.511719 C 161.371094 173.175781 161.769531 172.808594 162.136719 172.414062 C 162.257812 172.292969 162.378906 172.109375 162.410156 171.925781 C 162.59375 171.015625 162.5625 171.015625 161.738281 170.617188 C 161.585938 170.558594 161.402344 170.527344 161.3125 170.589844 Z M 161.3125 170.589844 " fill-opacity="1" fill-rule="nonzero" id="svg_20"/></g></svg>